<svg xmlns="http://www.w3.org/2000/svg" viewBox="0 0 413.55 413.55"><defs><style>.cls-1{fill:#fff;}.cls-2{fill:#e91e63;}</style></defs><g id="Layer_2" data-name="Layer 2"><g id="_ÎÓÈ_1" data-name="—ÎÓÈ_1"><rect class="cls-1" width="413.55" height="413.55"/><path class="cls-2" d="M236.32,195.7l63.71-20c17.88-5.6,37.18-24.31,32.73-38.52l-118,37Z"/><path class="cls-2" d="M273.79,233c16.48-7,32.42-23.84,28.33-36.89l-49.73,15.59Z"/><path class="cls-2" d="M177.23,217.85l-63.71,20c-17.89,5.61-37.19,24.31-32.73,38.53l118-37Z"/><path class="cls-2" d="M139.76,180.56c-16.48,7-32.43,23.83-28.34,36.88l49.74-15.59Z"/><path class="cls-2" d="M260.45,241.06l-78.16-77.73,137.2-43c17.88-5.61,37.18-24.3,32.72-38.52l-191.51,60L139,148.65a4.69,4.69,0,0,0-1.92,7.78l16,16.06,78.16,77.72-137.19,43c-17.88,5.61-37.19,24.31-32.73,38.52l191.51-60,21.71-6.8a4.68,4.68,0,0,0,1.91-7.78Z"/></g></g></svg>