<svg class="mainSvg" xmlns="http://www.w3.org/2000/svg" viewBox="0 0 150 160">
  <g id="g1" transform="translate(0,0)">
    <path id="p00" fill="rgba(76, 200, 233, 0.8)" d="M100,50 a50,50 0 1,0 -100,0"></path>
    <path id="p01" fill="rgba(255, 111, 188, 0.8)" d="M100,50 a50,50 0 1,0 -100,0" transform="rotate(180 75 25)"></path>
  </g>
  <g id="g2" transform="translate(0,55)">
    <path id="p10" fill="rgba(255, 111, 188, 0.8)" d="M100,50 a50,50 0 1,0 -100,0" transform="translate(50,0)"></path>
    <path id="p11" fill="rgba(107, 102, 196, 0.8)" d="M100,50 a50,50 0 1,0 -100,0" transform="translate(0,-50) rotate(180 50 50)"></path>
  </g>
  <g id="g3" transform="translate(0,110)">
    <path id="p20" fill="rgba(107, 102, 196, 0.8)" d="M100,50 a50,50 0 1,0 -100,0"></path>
    <path id="p21" fill="rgba(76, 200, 233, 0.8)" d="M100,50 a50,50 0 1,0 -100,0" transform="rotate(180 75 25)"></path>
  </g>
</svg>